<?xml version="1.0" standalone="no"?><!DOCTYPE svg PUBLIC "-//W3C//DTD SVG 1.1//EN" "http://www.w3.org/Graphics/SVG/1.1/DTD/svg11.dtd"><svg t="1679278621808" class="icon" viewBox="0 0 1024 1024" version="1.1" xmlns="http://www.w3.org/2000/svg" p-id="3493" width="32" height="32" xmlns:xlink="http://www.w3.org/1999/xlink"><path d="M817.09 516.12c-69.06 0-125.23 56.19-125.23 125.24 0 69.03 56.18 125.22 125.23 125.22 69.06 0 125.24-56.19 125.24-125.22 0-69.05-56.18-125.24-125.24-125.24z" fill="#434A54" p-id="3494"></path><path d="M817.09 578.73c-34.53 0-62.62 28.09-62.62 62.64 0 34.51 28.09 62.61 62.62 62.61s62.62-28.09 62.62-62.61c0-34.54-28.09-62.64-62.62-62.64z" fill="#CCD1D9" p-id="3495"></path><path d="M817.1 659.24c-6.32 0-12.45-3.35-15.7-9.28l-71.57-130.64c-4.74-8.68-1.57-19.53 7.1-24.29 8.66-4.74 19.54-1.57 24.28 7.1l71.57 130.64c4.74 8.65 1.57 19.52-7.1 24.27a17.71 17.71 0 0 1-8.58 2.2z" fill="#E6E9ED" p-id="3496"></path><path d="M208.8 516.12c-69.06 0-125.24 56.19-125.24 125.24 0 69.03 56.19 125.22 125.24 125.22s125.23-56.19 125.23-125.22c0.01-69.05-56.17-125.24-125.23-125.24z" fill="#434A54" p-id="3497"></path><path d="M208.8 578.73c-34.53 0-62.62 28.09-62.62 62.64 0 34.51 28.09 62.61 62.62 62.61s62.61-28.09 62.61-62.61c0-34.54-28.08-62.64-62.61-62.64z" fill="#CCD1D9" p-id="3498"></path><path d="M870.37 403.51c-8.87-41.85-36.1-102.13-115.35-151.66-6.96-4.35-15.99-3.41-21.88 2.28l-35.79 34.41c-5.65 5.42-7.1 13.89-3.6 20.89l18.14 36.27c-32.22-7.52-79.46-16.43-122.14-16.43-26.81 0-48.97 3.59-65.86 10.72-32.47 13.71-62.19 62.45-74.73 85.33L173.87 392.4a17.89 17.89 0 0 0-18.1 9.72c-2.08 4.11-3.97 10.85-1.09 19.45 4.74 14.15 22.79 36.04 120.75 91.15 26.61 14.99 53.03 28.93 72.66 39.07l-147.28 73.56c-7.06 3.51-10.97 11.24-9.64 19.03 1.34 7.76 7.59 13.76 15.41 14.73l137.04 17.11 31.45 31.45c3.35 3.35 7.9 5.24 12.65 5.24h268.36c4.82 0 9.45-1.94 12.8-5.4 3.37-3.43 5.2-8.1 5.08-12.92-0.03-0.92-1.6-91.91 54.3-149.41 30.13-30.98 72.07-46.78 124.68-46.96 7.94-0.02 14.91-5.29 17.11-12.92 0.42-1.44 10.08-35.79 0.32-81.79z" fill="#A0D468" p-id="3499"></path><path d="M449.15 425.31L173.87 392.4a17.89 17.89 0 0 0-18.1 9.72c-2.08 4.11-3.97 10.85-1.09 19.45 4.74 14.15 22.79 36.04 120.75 91.15 26.61 14.99 53.03 28.93 72.66 39.07 0 0 5.46-98.3 101.06-126.48z" fill="#8CC153" p-id="3500"></path><path d="M711.88 345.7c-32.22-7.52-79.46-16.43-122.14-16.43-26.81 0-48.97 3.59-65.86 10.72-32.47 13.71-62.19 62.45-74.73 85.33 0 0 44.46 11.66 134.18-12.81 120.77-32.95 128.55-66.81 128.55-66.81z" fill="#434A54" p-id="3501"></path><path d="M450.45 712.91l-138.8-142.93 36.44-18.19 154.17 161.12z" fill="#E6E9ED" p-id="3502"></path><path d="M495.05 587.7m-53.67 0a53.67 53.67 0 1 0 107.34 0 53.67 53.67 0 1 0-107.34 0Z" fill="#E6E9ED" p-id="3503"></path><path d="M561.38 628.71c6.98 6.97 6.98 18.32 0 25.29-7 7-18.32 7-25.3 0-6.98-6.97-6.98-18.32 0-25.29 6.99-7 18.31-7 25.3 0z" fill="#F5F7FA" p-id="3504"></path><path d="M743.26 465.96L631.2 521.21l66.81 67.64c7.5-15.33 17.34-30.4 30.24-43.66 17.91-18.42 39.99-31.47 66.02-39.07l-51.01-40.16z" fill="#E6E9ED" p-id="3505"></path></svg>