<?xml version="1.0" standalone="no"?><!DOCTYPE svg PUBLIC "-//W3C//DTD SVG 1.1//EN" "http://www.w3.org/Graphics/SVG/1.1/DTD/svg11.dtd"><svg t="1679036519263" class="icon" viewBox="0 0 1070 1024" version="1.1" xmlns="http://www.w3.org/2000/svg" p-id="8503" xmlns:xlink="http://www.w3.org/1999/xlink" width="33.4375" height="32"><path d="M495.429818 810.077091v-111.522909H208.663273A87.645091 87.645091 0 0 1 121.018182 610.909091V180.736C121.018182 132.328727 160.256 93.090909 208.663273 93.090909h653.218909c48.407273 0 87.645091 39.237818 87.645091 87.645091v430.173091c0 48.407273-39.237818 87.645091-87.645091 87.645091h-286.766546v111.522909h203.124364a35.84 35.84 0 0 1 35.84 35.84v7.959273a35.84 35.84 0 0 1-35.84 35.84H292.305455a35.84 35.84 0 0 1-35.84-35.84v-7.959273a35.84 35.84 0 0 1 35.84-35.84h203.124363zM399.825455 252.462545a39.842909 39.842909 0 0 0-39.796364 39.796364v223.045818a39.842909 39.842909 0 0 0 79.639273 0V292.305455a39.842909 39.842909 0 0 0-39.842909-39.84291z m239.010909 79.592728a39.842909 39.842909 0 0 0-39.842909 39.842909v143.406545a39.842909 39.842909 0 1 0 79.685818 0v-143.36a39.842909 39.842909 0 0 0-39.842909-39.842909z" fill="#3B8DFF" p-id="8504"></path></svg>